<?xml version="1.0" encoding="utf-8"?>
<!-- Generator: Adobe Illustrator 19.2.0, SVG Export Plug-In . SVG Version: 6.00 Build 0)  -->
<svg version="1.1" baseProfile="tiny" id="Layer_1" xmlns="http://www.w3.org/2000/svg" xmlns:xlink="http://www.w3.org/1999/xlink"
	 x="0px" y="0px" viewBox="0 0 612 792" xml:space="preserve">
<path d="M78.4,202.4c11.3,0,23,0.2,33.8,3.9c26.7,10.4,35.1,41,23,65.9c-11.4,20.4-35.7,23.1-56.8,23.1h-23v31.8
	c0,4.5-6.7,4.6-6.7,0V206c0-2.6,2.6-3.5,4.8-3.5H78.4z M55.3,209v79.9H80c17.6,0,38.6-2.2,49-18.4v0.1c7.5-13.2,7.5-33.1-1.5-45.6
	c-10.2-14-29.9-15.9-45.9-15.9H55.3z"/>
<path d="M162.5,271.7c28.2,0,28.1,43.6,0,43.6C134.5,315.2,134.4,271.7,162.5,271.7z M162.5,278.1c-19.9,0-19.8,30.6,0,30.7
	C182.2,308.9,182.2,278.1,162.5,278.1z"/>
<path d="M199.1,295.7c0.9,9.9,10.5,14.9,19.7,12.5c4.2-1.1,6.6-4.8,10.4-6.1c3.7-1.3,6.6,2.4,3.5,5.5c-8,8-21.6,10.7-31.3,4.1
	c-9.1-6.1-11.2-19.7-6.3-29.1c5-9.5,17.2-13.7,27.1-9.5c4.9,2.1,9,6,11.2,10.9c1.5,3.4,3.9,11.7-2.1,11.7H199.1z M228.3,289.4
	c-3.4-14.8-25.7-15.1-28.9-0.1L228.3,289.4z"/>
<path d="M255.2,278.5c0,0.3,0,0.7-0.1,1c6.4-5.2,24-14.1,27.2-0.6c9.3-6.9,28.4-13.1,28.4,4.6v27.7c0,4.3-6.5,4.6-6.5,0v-24.5
	c0-3.9,0.1-7.9-4.5-8.6c-5.8-0.9-12.9,5.2-17.1,8.3v24.8c0,4.3-6.4,4.6-6.4,0v-23c0-4.1,0.2-9.6-5-10.1c-5.6-0.5-12.4,6.2-16.3,9.5
	v23.6c0,4.3-6.4,4.6-6.4,0v-36.1c0-1.8,1.3-3.6,3.3-3.4C255.1,272,255.2,276.1,255.2,278.5z"/>
<path d="M333.4,242.1c6.5,0,6.5,10.2,0,10.2C326.8,252.3,326.9,242.1,333.4,242.1z M336.6,311.2c0,4.2-6.4,4.5-6.4,0v-36.1
	c0-4.3,6.4-4.6,6.4,0.1V311.2z"/>
<path d="M359.5,307.8c6.9,2.6,16.4-2.8,6.8-7.6c-7.6-3.8-16.1-5.6-13.6-16.4c2-8.6,11.2-12.8,19.4-11.9c2.6,0.3,8.6,1.4,9.3,4.6
	c0.7,3.6-2.8,4.2-5.5,3.1h0.1c-5.7-2.5-20.6-1-17.3,8.8c2.2,6.5,13.4,5.1,17.1,10.8c5.6,8.6-3.8,16.6-12.1,16.1
	c-2.6-0.2-8.3-1-9.4-3.7c-1.2-3,2.4-6.5,5-3.9L359.5,307.8z"/>
<path d="M405,298c0,8.2,5.1,14,13.5,9.5c2.4-1.3,4.9-5.7,7.5-5.8c3.1,0,4,3.6,2,5.6l0.1-0.1c-4.4,6.4-12.3,9.4-19.9,7.6
	c-8.1-2-9.8-9.4-9.6-16.8l0.3-18.9h-10.2c-4.2,0-4.5-6.3,0-6.3H399L400,244c0.2-4.3,6.3-4.5,6.3,0l-0.7,28.7h16c4.1,0,4.4,6.3,0,6.3
	h-16.2C405.4,285.3,405,291.6,405,298z"/>
</svg>
